<svg width="24" height="25" viewBox="0 0 24 25" fill="none" xmlns="http://www.w3.org/2000/svg">
<path d="M12 13.5C11.4477 13.5 11 13.0523 11 12.5C11 11.9477 11.4477 11.5 12 11.5C12.5523 11.5 13 11.9477 13 12.5C13 13.0523 12.5523 13.5 12 13.5Z" stroke="#828282" stroke-width="2" stroke-linecap="round" stroke-linejoin="round"/>
<path d="M5 13.5C4.44772 13.5 4 13.0523 4 12.5C4 11.9477 4.44772 11.5 5 11.5C5.55228 11.5 6 11.9477 6 12.5C6 13.0523 5.55228 13.5 5 13.5Z" stroke="#828282" stroke-width="2" stroke-linecap="round" stroke-linejoin="round"/>
<path d="M19 13.5C18.4477 13.5 18 13.0523 18 12.5C18 11.9477 18.4477 11.5 19 11.5C19.5523 11.5 20 11.9477 20 12.5C20 13.0523 19.5523 13.5 19 13.5Z" stroke="#828282" stroke-width="2" stroke-linecap="round" stroke-linejoin="round"/>
</svg>
